<svg width="1200" height="820" viewBox="0 0 1200 820" fill="none" xmlns="http://www.w3.org/2000/svg">
  <rect width="1200" height="820" rx="44" fill="#071713"/>
  <rect x="116" y="96" width="968" height="628" rx="36" fill="#102b23"/>
  <rect x="260" y="144" width="292" height="494" rx="22" fill="#e8fff3" fill-opacity=".86"/>
  <rect x="556" y="144" width="292" height="494" rx="22" fill="#0b1f18" stroke="#d1fae5" stroke-opacity=".28"/>
  <rect x="294" y="184" width="210" height="42" rx="10" fill="#0f3c2c"/>
  <rect x="294" y="264" width="190" height="18" rx="9" fill="#0f3c2c" fill-opacity=".46"/>
  <rect x="294" y="302" width="156" height="18" rx="9" fill="#0f3c2c" fill-opacity=".3"/>
  <rect x="294" y="382" width="210" height="190" rx="18" fill="url(#brochurePhoto)"/>
  <rect x="598" y="184" width="204" height="204" rx="18" fill="#34d399" fill-opacity=".72"/>
  <rect x="598" y="424" width="172" height="20" rx="10" fill="#d1fae5" fill-opacity=".42"/>
  <rect x="598" y="466" width="206" height="20" rx="10" fill="#d1fae5" fill-opacity=".24"/>
  <rect x="598" y="508" width="138" height="20" rx="10" fill="#d1fae5" fill-opacity=".18"/>
  <text x="908" y="622" fill="#d1fae5" font-family="Inter, Arial" font-size="62" font-weight="900">Id</text>
  <defs>
    <linearGradient id="brochurePhoto" x1="294" y1="382" x2="504" y2="572">
      <stop stop-color="#34d399"/>
      <stop offset="1" stop-color="#052e22"/>
    </linearGradient>
  </defs>
</svg>
