<svg width="1200" height="820" viewBox="0 0 1200 820" fill="none" xmlns="http://www.w3.org/2000/svg">
  <rect width="1200" height="820" rx="44" fill="#071713"/>
  <rect x="168" y="92" width="864" height="636" rx="38" fill="#0c241d"/>
  <rect x="226" y="150" width="220" height="220" rx="26" fill="url(#postA)"/>
  <rect x="490" y="150" width="220" height="220" rx="26" fill="#d1fae5" fill-opacity=".14"/>
  <rect x="754" y="150" width="220" height="220" rx="26" fill="#34d399" fill-opacity=".28"/>
  <rect x="226" y="414" width="220" height="220" rx="26" fill="#34d399" fill-opacity=".2"/>
  <rect x="490" y="414" width="220" height="220" rx="26" fill="url(#postB)"/>
  <rect x="754" y="414" width="220" height="220" rx="26" fill="#d1fae5" fill-opacity=".2"/>
  <circle cx="600" cy="524" r="60" fill="#f7fffb" fill-opacity=".22"/>
  <rect x="276" y="298" width="120" height="18" rx="9" fill="#f7fffb" fill-opacity=".45"/>
  <rect x="804" y="562" width="120" height="18" rx="9" fill="#f7fffb" fill-opacity=".38"/>
  <text x="488" y="704" fill="#d1fae5" font-family="Inter, Arial" font-size="42" font-weight="900">Post Grid</text>
  <defs>
    <linearGradient id="postA" x1="226" y1="150" x2="446" y2="370"><stop stop-color="#d1fae5"/><stop offset="1" stop-color="#10b981"/></linearGradient>
    <linearGradient id="postB" x1="490" y1="414" x2="710" y2="634"><stop stop-color="#34d399"/><stop offset="1" stop-color="#052e22"/></linearGradient>
  </defs>
</svg>
