<svg width="1200" height="820" viewBox="0 0 1200 820" fill="none" xmlns="http://www.w3.org/2000/svg">
  <rect width="1200" height="820" rx="44" fill="#071713"/>
  <rect x="106" y="104" width="988" height="612" rx="36" fill="#0d2a21"/>
  <rect x="158" y="154" width="610" height="416" rx="28" fill="#061811" stroke="#d1fae5" stroke-opacity=".2"/>
  <rect x="198" y="202" width="162" height="38" rx="12" fill="#34d399"/>
  <rect x="198" y="282" width="216" height="136" rx="18" fill="#d1fae5" fill-opacity=".13"/>
  <rect x="448" y="282" width="246" height="136" rx="18" fill="#34d399" fill-opacity=".28"/>
  <rect x="198" y="456" width="496" height="36" rx="18" fill="#d1fae5" fill-opacity=".13"/>
  <rect x="818" y="176" width="206" height="424" rx="36" fill="#071713" stroke="#b7f7d4" stroke-opacity=".34"/>
  <rect x="850" y="230" width="142" height="34" rx="14" fill="#34d399"/>
  <rect x="850" y="310" width="142" height="118" rx="22" fill="#d1fae5" fill-opacity=".16"/>
  <rect x="850" y="462" width="142" height="24" rx="12" fill="#d1fae5" fill-opacity=".3"/>
  <circle cx="920" cy="542" r="24" fill="#34d399" fill-opacity=".7"/>
  <text x="214" y="640" fill="#d1fae5" font-family="Inter, Arial" font-size="46" font-weight="900">Dashboard + Mobile UI</text>
</svg>
